<svg width="1058" height="785" viewBox="0 0 1058 785" fill="none" xmlns="http://www.w3.org/2000/svg">
<g id="undraw_Ride_a_bicycle_2yok 1" clip-path="url(#clip0)">
<path id="Vector" d="M209.73 115.43C204.25 122.08 202.14 131.43 199.78 140.22C180.78 211.06 133.96 268.04 80.64 308.74C58.06 325.98 30.57 349.1 35.51 380.01C38.17 396.61 49.84 408.83 58.51 422.35C76.7 450.66 82.6 489.14 73.93 523.03C64.07 561.59 36.51 597.57 45.04 636.56C50.3 660.56 68.16 677.64 85.33 692.32C112.117 715.207 139.757 736.647 168.25 756.64C187.35 770.04 207.67 783.08 229.93 784.78C249.53 786.28 268.73 778.83 287.34 771.48C303.6 765.05 320.27 758.36 333.4 745.48C341.97 737.07 348.8 726.22 358.32 719.34C380.68 703.18 409.4 713.42 435.04 720.34C495.54 736.58 560.29 730.65 617.86 703.6C706.17 662.1 773.48 574.95 859.86 528.19C897 508.08 937.4 495.6 971.79 469.7C991.165 454.953 1007.82 436.936 1020.99 416.46C1046.99 376.35 1061.05 325.21 1056.99 275.15C1052.93 225.09 1030.18 176.85 994.45 148.59C956.2 118.34 907.89 112.69 864.37 94.53C819.43 75.77 779.45 43.53 734.94 23.4C698.924 7.15665 659.728 -0.81716 620.228 0.0636141C580.728 0.944389 541.926 10.6574 506.67 28.49C458.23 52.99 409.13 110.15 355.18 114.49C316.74 117.49 239.75 79.01 209.73 115.43Z" fill="url(#paint0_linear)"/>
<g id="Left_wheel">
<path id="Vector_2" d="M255.725 716.778L249.455 618.838L249.325 618.628L243.005 620.828L213.925 705.678L167.675 672.888L241.345 619.478L241.415 619.268L241.835 619.118L246.585 615.668L169.345 572.358L150.425 593.158L153.425 612.658L242.245 614.278V616.278L151.765 614.658L148.345 592.518L174.245 564.058L212.995 518.858L213.685 520.728L221.885 511.728L252.345 517.188V515.978L254.345 516.038V517.548L299.705 525.668L257.415 610.278L251.245 614.748V615.248V615.808L349.045 581.728L337.435 672.938L254.435 620.068L251.515 618.428L300.455 697.308L255.725 716.778ZM251.725 622.438L257.575 713.818L297.625 696.438L251.725 622.438ZM171.145 672.868L212.935 702.498L240.275 622.758L171.145 672.868ZM253.465 617.208L255.555 618.378L335.905 669.578L346.705 584.708L253.465 617.208ZM246.365 610.008L248.875 614.058L249.315 613.738L252.315 519.208L222.575 513.888L214.415 522.888L246.365 610.008ZM170.945 570.948L245.785 612.948L244.485 610.818L212.905 524.548L175.715 565.418L170.945 570.948ZM254.345 519.558L251.345 612.278L255.865 608.998L296.775 527.178L254.345 519.558Z" fill="#535461"/>
<path id="Vector_3" d="M365.415 589.738C361.405 571.919 353.285 555.283 341.705 541.158C337.406 535.909 332.666 531.038 327.535 526.598C307.809 509.567 282.986 499.568 256.962 498.17C230.938 496.771 205.187 504.053 183.749 518.873C162.311 533.693 146.401 555.211 138.515 580.05C130.629 604.89 131.214 631.645 140.178 656.116C149.142 680.587 165.978 701.39 188.042 715.258C210.107 729.127 236.152 735.277 262.09 732.743C288.028 730.208 312.39 719.134 331.353 701.257C350.317 683.379 362.807 659.712 366.865 633.968C367.809 627.907 368.284 621.783 368.285 615.648C368.292 606.932 367.329 598.242 365.415 589.738ZM250.225 704.088C231.993 704.069 214.209 698.435 199.292 687.953C184.374 677.47 173.047 662.648 166.851 645.501C160.655 628.354 159.89 609.715 164.66 592.118C169.43 574.521 179.505 558.82 193.513 547.15C207.521 535.48 224.783 528.408 242.953 526.895C261.122 525.381 279.316 529.501 295.062 538.693C310.807 547.884 323.34 561.703 330.956 578.268C338.571 594.834 340.9 613.343 337.625 631.278C333.875 651.722 323.076 670.203 307.107 683.506C291.137 696.809 271.01 704.093 250.225 704.088V704.088Z" fill="#535461"/>
<path id="Vector_4" d="M250.225 628.058C257.3 628.058 263.035 622.323 263.035 615.248C263.035 608.174 257.3 602.438 250.225 602.438C243.15 602.438 237.415 608.174 237.415 615.248C237.415 622.323 243.15 628.058 250.225 628.058Z" fill="#535461"/>
</g>
<g id="Right_wheel">
<path id="Vector_5" d="M679.847 717.78L673.587 619.88L673.457 619.67L667.137 621.87L638.047 706.68L591.797 673.88L665.487 620.47L665.557 620.26L665.977 620.11L670.727 616.66L593.487 573.35L574.557 594.15L577.557 613.65L666.357 615.23V617.23L575.877 615.61L572.477 593.5L598.367 565.05L637.087 519.88L637.777 521.75L645.977 512.75L676.517 518.22V517.01L678.517 517.07V518.58L723.877 526.7L681.547 611.35L675.377 615.82V616.32V616.88L773.187 582.8L761.577 674.01L678.577 621.14L675.657 619.5L724.597 698.39L679.847 717.78ZM675.847 623.44L681.697 714.82L721.747 697.44L675.847 623.44ZM595.277 673.88L637.067 703.51L664.407 623.77L595.277 673.88ZM677.597 618.22L679.687 619.39L760.037 670.59L770.837 585.72L677.597 618.22ZM670.497 611.02L673.007 615.07L673.447 614.75L676.447 520.22L646.707 514.88L638.547 523.88L670.497 611.02ZM595.107 571.97L669.947 613.97L668.647 611.84L637.067 525.57L599.867 566.45L595.107 571.97ZM678.477 520.58L675.477 613.27L679.997 609.99L720.907 528.17L678.477 520.58Z" fill="#535461"/>
<path id="Vector_6" d="M674.757 499C664.144 498.988 653.578 500.415 643.347 503.24C638.071 504.695 632.904 506.523 627.887 508.71C601.157 520.297 579.674 541.387 567.594 567.898C555.514 594.41 553.697 624.459 562.492 652.233C571.287 680.008 590.071 703.533 615.209 718.259C640.348 732.984 670.054 737.863 698.582 731.952C727.109 726.04 752.431 709.759 769.648 686.257C786.865 662.755 794.754 633.702 791.789 604.72C788.823 575.738 775.215 548.885 753.595 529.356C731.975 509.828 703.881 499.012 674.747 499H674.757ZM674.357 705.09C654.076 705.082 634.408 698.137 618.62 685.407C602.831 672.678 591.872 654.931 587.562 635.113C583.252 615.295 585.851 594.599 594.928 576.463C604.004 558.326 619.011 543.84 637.457 535.41C642.149 533.262 647.021 531.532 652.017 530.24C664.229 527.07 676.977 526.537 689.411 528.678C701.845 530.818 713.681 535.581 724.13 542.652C734.58 549.722 743.404 558.937 750.015 569.683C756.627 580.429 760.873 592.46 762.473 604.975C764.073 617.49 762.989 630.202 759.293 642.265C755.598 654.329 749.375 665.467 741.04 674.939C732.704 684.41 722.447 691.998 710.951 697.196C699.455 702.395 686.984 705.086 674.367 705.09H674.357Z" fill="#535461"/>
<path id="Vector_7" d="M674.357 629.06C681.432 629.06 687.167 623.325 687.167 616.25C687.167 609.175 681.432 603.44 674.357 603.44C667.282 603.44 661.547 609.175 661.547 616.25C661.547 623.325 667.282 629.06 674.357 629.06Z" fill="#535461"/>
</g>
<g id="Man">
<path id="Vector_8" d="M387 554.303L344.293 512.159L330.947 525.683L373.654 567.827L387 554.303Z" fill="#535461"/>
<path id="Vector_9" d="M354.48 491.99C354.48 491.99 379.27 478.91 388.85 470.49C394.617 465.444 400.818 460.917 407.38 456.96L438.48 438.03L503.48 433.03L506.48 444.03C506.48 444.03 511.48 460.03 461.48 474.03C411.48 488.03 386.48 510.03 386.48 510.03C386.48 510.03 354.48 520.99 354.48 491.99Z" fill="#DB8B8B"/>
<path id="Vector_10" opacity="0.1" d="M389.13 507.86C387.36 509.21 386.48 509.99 386.48 509.99C386.48 509.99 354.48 520.99 354.48 491.99C354.48 491.99 356.03 491.17 358.48 489.8C360.955 493.831 364.423 497.16 368.551 499.469C372.679 501.778 377.33 502.99 382.06 502.99H385.45L389.13 507.86Z" fill="black"/>
<path id="Vector_11" opacity="0.05" d="M505.54 449.55C502.76 455.44 493.17 465.12 461.48 473.99C420.87 485.36 396.75 501.99 389.13 507.86C387.36 509.21 386.48 509.99 386.48 509.99C386.48 509.99 354.48 520.99 354.48 491.99C354.48 491.99 356.03 491.17 358.48 489.8C365.91 485.73 381.64 476.8 388.82 470.45C394.586 465.403 400.787 460.875 407.35 456.92L438.45 437.99L450.03 437.1L503.45 432.99L506.45 443.99C506.45 443.99 507.15 446.14 505.54 449.55Z" fill="black"/>
<path id="Vector_12" d="M354.98 485.49L328.48 502.99L406.08 567.99C406.08 567.99 417.48 560.99 411.48 552.99C411.48 552.99 391.48 535.99 390.48 511.99L384.48 503.99H381.09C375.358 503.991 369.767 502.211 365.089 498.897C360.412 495.583 356.88 490.898 354.98 485.49V485.49Z" fill="#ABB1D1"/>
<path id="Vector_13" opacity="0.1" d="M505.54 449.55C489.54 441.82 450.48 440.99 450.48 440.99L450.06 437.1L503.48 432.99L506.48 443.99C506.48 443.99 507.15 446.14 505.54 449.55Z" fill="black"/>
<path id="Vector_14" d="M450.48 438.99C450.48 438.99 497.48 439.99 509.48 449.99L503.48 328.99H438.48L450.48 438.99Z" fill="#ABB1D1"/>
<path id="Vector_15" opacity="0.05" d="M450.48 438.49C450.48 438.49 497.48 439.49 509.48 449.49L503.48 328.49H438.48L450.48 438.49Z" fill="black"/>
<path id="Vector_16" d="M488.24 364.95C488.24 364.95 605.89 360.95 608.29 376.16C610.69 391.37 490.64 384.96 490.64 384.96C490.64 384.96 481.04 375.35 488.24 364.95Z" fill="#535461"/>
<path id="Vector_17" opacity="0.05" d="M488.24 364.95C488.24 364.95 605.89 360.95 608.29 376.16C610.69 391.37 490.64 384.96 490.64 384.96C490.64 384.96 481.04 375.35 488.24 364.95Z" fill="black"/>
<path id="Vector_18" d="M393 425.78H372.19V606.66H393V425.78Z" fill="#797979"/>
<path id="Vector_19" opacity="0.1" d="M393 425.77V439.7C386.08 440.6 379 441.17 372.19 441.39V425.77H393Z" fill="black"/>
<path id="Vector_20" d="M391.44 410.78C388.52 410.554 385.616 410.164 382.74 409.61C371.46 407.45 343.02 402.92 335.37 410.61C325.77 420.21 328.97 437.02 354.58 439.42C380.19 441.82 424.21 435.42 433.02 425.81C433.02 425.77 417.09 412.75 391.44 410.78Z" fill="#535461"/>
<path id="Vector_21" d="M387.4 475.4L605.9 407.37L613.1 424.18L389 501.01L387.4 475.4Z" fill="#797979"/>
<path id="Vector_22" d="M452.23 582.65L609.9 427.38L618.7 440.18L468.23 597.05L452.23 582.65Z" fill="#797979"/>
<path id="Vector_23" opacity="0.1" d="M653.58 529.85C648.584 531.142 643.712 532.872 639.02 535.02L629.46 508.31C634.477 506.123 639.644 504.295 644.92 502.84L653.58 529.85Z" fill="black"/>
<path id="Vector_24" d="M680.33 608.26L669.13 614.66L590.99 396.33L587.49 386.56L605.9 376.15L610.51 390.53L680.33 608.26Z" fill="#797979"/>
<path id="Vector_25" opacity="0.1" d="M610.51 390.53L590.99 396.33L587.49 386.56L605.9 376.15L610.51 390.53Z" fill="black"/>
<path id="Vector_26" d="M491.44 407.37L601.09 369.75C601.09 369.75 620.3 372.15 613.09 388.16L502.65 420.97C502.65 420.97 485.85 422.57 491.44 407.37Z" fill="#535461"/>
<path id="Vector_27" opacity="0.1" d="M367.79 615.86C367.789 621.994 367.314 628.119 366.37 634.18C356.77 633.49 346.85 632.49 337.13 631.49C339.289 619.599 339.021 607.394 336.34 595.61C345.81 593.61 355.48 591.7 364.92 589.97C366.833 598.467 367.795 607.15 367.79 615.86V615.86Z" fill="black"/>
<path id="Vector_28" opacity="0.1" d="M393 585.38V606.65H372.19V588.65C379.39 587.4 386.39 586.29 393 585.38Z" fill="black"/>
<path id="Vector_29" d="M258.54 615.49C258.54 615.49 426.62 571.49 440.22 588.28C453.82 605.07 468.23 627.49 425.85 635.49C383.47 643.49 255.37 621.88 255.37 621.88L258.54 615.49Z" fill="#797979"/>
<path id="Vector_30" opacity="0.1" d="M341.21 541.37L319.85 560.92C316.067 556.064 311.791 551.614 307.09 547.64L327.03 526.81C332.164 531.249 336.908 536.12 341.21 541.37V541.37Z" fill="black"/>
<path id="Vector_31" d="M252.94 606.66L378.59 475.4L382.6 505.81L259.34 618.66L252.94 606.66Z" fill="#797979"/>
<path id="Vector_32" opacity="0.1" d="M251.34 628.27C258.415 628.27 264.15 622.535 264.15 615.46C264.15 608.385 258.415 602.65 251.34 602.65C244.265 602.65 238.53 608.385 238.53 615.46C238.53 622.535 244.265 628.27 251.34 628.27Z" fill="black"/>
<path id="Vector_33" opacity="0.1" d="M675.13 627.07C682.205 627.07 687.94 621.335 687.94 614.26C687.94 607.185 682.205 601.45 675.13 601.45C668.055 601.45 662.32 607.185 662.32 614.26C662.32 621.335 668.055 627.07 675.13 627.07Z" fill="black"/>
<path id="Vector_34" opacity="0.1" d="M448.22 628.27C462.364 628.27 473.83 616.804 473.83 602.66C473.83 588.516 462.364 577.05 448.22 577.05C434.076 577.05 422.61 588.516 422.61 602.66C422.61 616.804 434.076 628.27 448.22 628.27Z" fill="black"/>
<path id="Vector_35" d="M449.83 628.27C463.974 628.27 475.44 616.804 475.44 602.66C475.44 588.516 463.974 577.05 449.83 577.05C435.686 577.05 424.22 588.516 424.22 602.66C424.22 616.804 435.686 628.27 449.83 628.27Z" fill="#535461"/>
<path id="Vector_36" d="M442.992 600.736L442.984 600.742C439.977 602.991 439.362 607.253 441.611 610.26L461.937 637.441C464.186 640.448 468.448 641.063 471.455 638.814L471.463 638.808C474.471 636.559 475.085 632.297 472.836 629.29L452.51 602.109C450.261 599.102 446 598.487 442.992 600.736Z" fill="#6C63FF"/>
<path id="Vector_37" d="M565.48 246.99L563.1 277.1C562.826 280.914 562.876 284.744 563.25 288.55C563.56 291.92 563.25 297.82 559.95 306.82C555.713 318.317 553.523 330.467 553.48 342.72V376.99L530.48 372.99C530.48 372.99 531.48 324.99 527.48 316.99C523.48 308.99 530.48 237.99 530.48 237.99L565.48 246.99Z" fill="#DB8B8B"/>
<path id="Vector_38" opacity="0.05" d="M564.3 261.91L563.1 277.1C562.83 280.911 562.883 284.738 563.26 288.54C563.57 291.91 563.26 297.81 559.96 306.82C555.723 318.317 553.533 330.467 553.49 342.72V376.99L530.49 372.99C530.49 372.99 531.49 324.99 527.49 316.99C524.66 311.32 527.34 274.05 529.15 252.78C529.9 244.03 530.49 237.99 530.49 237.99L565.49 246.99L564.3 261.91Z" fill="black"/>
<path id="Vector_39" d="M451.5 476.99L442.85 526.19C441.759 532.759 440.086 539.218 437.85 545.49C432.78 559.35 436.02 578.78 438.48 589.38C439.57 594.06 440.48 597.02 440.48 597.02L414.48 611.02L406.48 605.02V601.02L405.48 512.02C399.48 498.02 401.48 477.02 405.48 469.02C406.617 466.392 407.417 463.63 407.86 460.8C409.86 450.08 410.48 435.02 410.48 435.02C410.48 435.02 426.48 408.02 445.48 426.02C452.48 432.65 455.14 441.32 455.7 449.62C456.68 463.83 451.5 476.99 451.5 476.99Z" fill="#DB8B8B"/>
<path id="Vector_40" opacity="0.1" d="M455.7 449.59C441.83 457.83 417.7 460.16 407.86 460.77C409.86 450.05 410.48 434.99 410.48 434.99C410.48 434.99 426.48 407.99 445.48 425.99C452.48 432.62 455.14 441.29 455.7 449.59Z" fill="black"/>
<path id="Vector_41" d="M489.48 424.99C478.846 430.653 468.797 437.352 459.48 444.99C443.48 457.99 403.48 458.99 403.48 458.99V443.99C404.48 425.99 387.48 405.99 364.48 349.99C349.79 314.23 353.86 293.99 358.72 283.99C361.48 278.34 364.48 275.99 364.48 275.99L489.48 299.99L493.95 313.39L503.48 341.99C503.48 341.99 468.48 343.99 462.48 346.99C456.48 349.99 460.48 376.99 460.48 376.99C454.48 404.99 489.48 424.99 489.48 424.99Z" fill="#ABB1D1"/>
<path id="Vector_42" opacity="0.1" d="M565.48 246.99L564.3 261.91C546.9 266.91 534.48 250.99 534.48 250.99C532.665 251.477 530.882 252.074 529.14 252.78C529.89 244.03 530.48 237.99 530.48 237.99L565.48 246.99Z" fill="black"/>
<path id="Vector_43" opacity="0.1" d="M493.95 313.39C493.48 318.06 493.48 320.99 493.48 320.99C493.48 320.99 470.48 339.99 431.48 310.99C392.48 281.99 357.48 289.99 357.48 289.99C357.48 289.99 357.89 287.67 358.72 283.99C361.48 278.34 364.48 275.99 364.48 275.99L489.48 299.99L493.95 313.39Z" fill="black"/>
<path id="Vector_44" d="M578.96 207.94C576.35 228.29 575.48 253.94 575.48 253.94C552.48 271.94 534.48 248.94 534.48 248.94C512.76 254.77 502.55 273.78 497.74 290.37C495.164 299.344 493.732 308.607 493.48 317.94C493.48 317.94 487.4 322.94 476.2 323.94C465.61 324.83 450.43 322.07 431.48 307.94C392.48 278.94 357.48 286.94 357.48 286.94C357.48 286.94 364.48 246.94 380.48 234.94C396.48 222.94 408.48 207.94 428.48 161.94C448.48 115.94 489.48 126.94 489.48 126.94C489.48 126.94 491.48 117.94 528.48 126.94C537.492 129.302 545.834 133.721 552.85 139.85C572.64 156.49 582.24 182.3 578.96 207.94Z" fill="white"/>
<path id="Vector_45" d="M541.85 149.49C541.8 150.82 541.69 152.3 541.51 153.95C539.51 171.95 537.51 169.95 515.51 173.95C501.83 176.44 494.72 165.01 491.3 156.01C490.062 152.75 489.128 149.382 488.51 145.95L536.51 137.95C536.51 137.95 542.26 136.34 541.85 149.49Z" fill="#DB8B8B"/>
<path id="Vector_46" opacity="0.05" d="M497.74 290.42C495.164 299.394 493.732 308.657 493.48 317.99C493.48 317.99 487.4 322.99 476.2 323.99C475.884 323.353 475.643 322.682 475.48 321.99C473.48 312.99 458.48 296.99 458.48 296.99C448.48 287.99 446.48 271.99 446.48 271.99L429.98 223.49L424.48 218.99C424.48 218.99 447.48 200.99 467.48 215.99C487.48 230.99 481.48 262.99 481.48 262.99L485.48 273.99C489.63 277.49 493.85 283.66 497.74 290.42Z" fill="black"/>
<path id="Vector_47" d="M427.48 217.99L449.48 270.99C449.48 270.99 451.48 286.99 461.48 295.99C461.48 295.99 476.48 311.99 478.48 320.99C480.48 329.99 508.48 353.99 508.48 353.99C508.48 353.99 534.48 377.99 536.48 386.99C536.48 386.99 560.48 393.99 557.48 407.99C557.48 407.99 575.48 389.99 557.48 372.99C539.48 355.99 515.48 320.99 515.48 320.99C515.48 320.99 501.48 283.99 488.48 272.99L484.48 261.99C484.48 261.99 490.48 229.99 470.48 214.99C450.48 199.99 427.48 217.99 427.48 217.99Z" fill="#DB8B8B"/>
<path id="Vector_48" opacity="0.1" d="M440.48 596.99L414.48 610.99L406.48 604.99V600.99C415.464 600.352 424.193 597.718 432.03 593.28C434.43 591.92 436.69 590.58 438.5 589.4C439.55 594.03 440.48 596.99 440.48 596.99Z" fill="black"/>
<path id="Vector_49" opacity="0.1" d="M470.48 175.99L484.48 230.99C484.48 230.99 441.48 237.99 432.48 230.99C423.48 223.99 406.48 221.99 406.48 221.99C406.48 221.99 424.48 169.99 434.48 163.99C444.48 157.99 470.48 175.99 470.48 175.99Z" fill="black"/>
<path id="Vector_50" d="M470.48 173.99L484.48 228.99C484.48 228.99 441.48 235.99 432.48 228.99C423.48 221.99 406.48 219.99 406.48 219.99C406.48 219.99 424.48 167.99 434.48 161.99C444.48 155.99 470.48 173.99 470.48 173.99Z" fill="white"/>
<path id="Vector_51" opacity="0.1" d="M541.85 148.49C539.049 152.356 535.487 155.609 531.383 158.047C527.278 160.485 522.718 162.058 517.983 162.669C513.248 163.28 508.439 162.915 503.85 161.598C499.261 160.281 494.99 158.039 491.3 155.01C490.062 151.75 489.128 148.382 488.51 144.95L536.51 136.95C536.51 136.95 542.26 135.34 541.85 148.49Z" fill="black"/>
<path id="Vector_52" d="M548.48 126.99C548.48 136.273 544.793 145.175 538.229 151.739C531.665 158.303 522.763 161.99 513.48 161.99C504.197 161.99 495.295 158.303 488.731 151.739C482.168 145.175 478.48 136.273 478.48 126.99C478.48 126.41 478.48 125.83 478.48 125.25C478.711 115.967 482.62 107.157 489.346 100.756C496.073 94.3555 505.067 90.8893 514.35 91.12C523.633 91.3508 532.443 95.2595 538.844 101.986C545.245 108.713 548.711 117.707 548.48 126.99V126.99Z" fill="#DB8B8B"/>
<path id="Vector_53" opacity="0.1" d="M547.95 123.881C547.953 127.107 547.509 130.317 546.63 133.421C543.925 134.01 541.103 133.752 538.55 132.681C534.81 131.211 531.6 128.681 528.01 126.861C517.9 121.741 505.87 122.751 494.67 124.441C489.11 125.281 482.8 126.061 478.43 122.521C478.28 122.402 478.136 122.275 478 122.141C478.231 112.858 482.14 104.048 488.866 97.6469C495.593 91.2463 504.587 87.7801 513.87 88.0108C523.153 88.2416 531.963 92.1503 538.364 98.8773C544.765 105.604 548.231 114.598 548 123.881H547.95Z" fill="black"/>
<path id="Vector_54" opacity="0.05" d="M384.98 234.49C384.98 234.49 410.98 241.49 418.98 259.49C426.98 277.49 448.62 280.78 448.62 280.78" fill="black"/>
<path id="Vector_55" d="M482.98 630.49H422.98V649.49H482.98V630.49Z" fill="#535461"/>
<path id="Vector_56" d="M431.99 595.23C437.36 592.23 442.07 589.23 442.48 587.99C442.48 587.99 456.03 602.29 468.1 606.73C472.159 608.229 476.044 610.16 479.69 612.49C484.47 615.49 491.29 619.02 497.48 619.02C497.48 619.02 511.48 631.02 484.48 633.02C457.48 635.02 394.48 628.02 394.48 628.02L398.48 603.02C410.167 603.705 421.804 601 431.99 595.23Z" fill="#ABB1D1"/>
</g>
<g id="hat">
<path id="Vector_57" d="M454.624 101.927C456.754 108.607 466.984 108.817 472.234 113.737C474.964 116.297 476.234 120.077 479.234 122.357C483.404 125.537 489.424 124.837 494.734 124.077C505.424 122.557 516.904 121.647 526.544 126.257C529.964 127.887 533.034 130.167 536.604 131.497C540.174 132.827 544.604 132.987 547.504 130.627C549.824 128.737 550.674 125.627 552.774 123.547C554.404 121.907 556.674 120.987 558.534 119.547C562.614 116.467 564.374 111.447 565.534 106.647C567.934 96.7667 568.624 86.1167 564.534 76.7467C560.444 67.3767 550.604 59.7467 539.864 60.2367C536.574 60.3867 533.364 61.2367 530.084 61.5967C521.534 62.4667 513.084 59.5967 504.504 59.1067C502.015 58.8039 499.49 59.1483 497.174 60.1067C495.427 61.0775 493.92 62.4273 492.764 64.0567C488.836 69.2021 486.146 75.1836 484.904 81.5367C483.904 86.3267 483.854 90.6667 477.984 91.4067C471.314 92.2867 450.114 87.7967 454.624 101.927Z" fill="#472727"/>
</g>
</g>
<defs>
<linearGradient id="paint0_linear" x1="942" y1="129" x2="94.0001" y2="697" gradientUnits="userSpaceOnUse">
<stop stop-color="#63FFFF"/>
<stop offset="1" stop-color="#B163FF"/>
</linearGradient>
<clipPath id="clip0">
<rect width="1057.7" height="784.98" fill="white"/>
</clipPath>
</defs>
</svg>
